<?xml version="1.0" encoding="UTF-8"?>
<svg id="_レイヤー_1" data-name="レイヤー 1" xmlns="http://www.w3.org/2000/svg" viewBox="0 0 830.37 605.81">
  <defs>
    <style>
      .cls-1 {
        fill: #3e3a39;
      }

      .cls-2 {
        fill: #0070bb;
      }

      .cls-3 {
        fill: #00a78d;
      }

      .cls-4 {
        fill: none;
      }
    </style>
  </defs>
  <g>
    <polygon class="cls-2" points="713.07 8.01 625.07 8.01 478.37 8.01 404.07 136.61 361.57 212.11 454.27 212.11 521.97 95.01 525.27 89.31 630.87 89.31 666.07 89.31 666.07 89.31 666.07 89.31 736.47 211.21 666.07 333.11 525.27 333.11 464.27 227.41 417.37 308.71 478.37 414.41 713.07 414.41 830.37 211.21 713.07 8.01"/>
    <line class="cls-4" x1="477.17" y1="191.81" x2="477.47" y2="192.71"/>
    <path class="cls-3" d="M361.57,212.11l-38.1,64c-11.2,19.5-27.4,35.9-47.4,47.5-40,23.1-89.8,23.1-130-.1-19.6-11.3-35.9-27.7-47.3-47.4-17.3-30-21.9-65-13-98.5,9-33.5,30.4-61.5,60.5-78.8,40-23.1,89.8-23.1,130,.1,19.6,11.3,35.9,27.7,47.3,47.4,12,20.8,17.8,44,17.3,67.4l57.6-99.8c-1.4-2.8-2.9-5.5-4.5-8.3-19.2-33.2-46.1-59.3-77.1-77.2-63.2-36.5-143.5-39.2-211.3-.1C4.57,86.61-29.93,215.71,28.27,316.61c19.2,33.2,46.1,59.3,77.1,77.2,63.2,36.5,143.5,39.2,211.3.1,35.3-20.4,62.4-49.4,80.3-82.8l57.3-99.2h-92.7"/>
  </g>
  <g>
    <path class="cls-1" d="M68.78,514.33h-18.68v-4.09c0-4.16-.98-7.73-3-10.8s-5.4-4.52-10.2-4.52c-2.55,0-4.65.51-6.23,1.46s-2.85,2.12-3.83,3.57c-.98,1.53-1.65,3.28-2.03,5.25s-.53,4.01-.53,6.13c0,2.48.08,4.6.3,6.27.15,1.68.68,3.14,1.35,4.45.75,1.31,1.8,2.41,3.23,3.36,1.43.95,3.3,1.9,5.78,2.85l14.33,5.54c4.13,1.53,7.5,3.36,10.05,5.4,2.55,2.12,4.58,4.52,6.08,7.22,1.35,2.85,2.25,6.06,2.78,9.7.45,3.65.75,7.73.75,12.4,0,5.33-.53,10.29-1.65,14.88-1.13,4.6-2.85,8.46-5.33,11.67-2.55,3.36-5.93,5.91-10.05,7.81-4.13,1.9-9.23,2.85-15.23,2.85-4.5,0-8.78-.8-12.68-2.33s-7.28-3.65-10.05-6.42c-2.78-2.7-5.03-5.91-6.68-9.56s-2.48-7.59-2.48-11.82v-6.78h18.68v5.69c0,3.36.98,6.35,3,8.97,2.03,2.7,5.4,4.01,10.2,4.01,3.15,0,5.63-.44,7.43-1.31s3.15-2.19,4.13-3.87,1.58-3.65,1.73-5.98.3-4.89.3-7.73c0-3.36-.15-6.06-.38-8.17s-.75-3.87-1.5-5.18c-.83-1.31-1.95-2.41-3.38-3.21-1.43-.8-3.3-1.75-5.63-2.7l-13.35-5.33c-8.1-3.21-13.5-7.44-16.2-12.77-2.78-5.25-4.13-11.89-4.13-19.84,0-4.74.68-9.27,2.03-13.57s3.38-7.95,6.08-11.09c2.55-3.06,5.85-5.54,9.83-7.37,3.98-1.82,8.7-2.77,14.18-2.77,4.65,0,8.85.8,12.75,2.48,3.83,1.68,7.2,3.87,9.98,6.57,5.63,5.69,8.4,12.26,8.4,19.62v9.05h-.15Z"/>
    <path class="cls-1" d="M82.74,604.64v-126.87h55.73v17.14h-36.98v37.28h32.25v17.14h-32.25v37.28h36.98v18.17h-55.73v-.15Z"/>
    <path class="cls-1" d="M209.87,568.53v7.81c0,3.94-.75,7.66-2.33,11.16-1.5,3.5-3.6,6.64-6.3,9.34-2.7,2.7-5.85,4.89-9.45,6.49-3.6,1.6-7.5,2.41-11.63,2.41-3.53,0-7.13-.51-10.8-1.46-3.68-.95-6.98-2.63-9.9-4.96-2.93-2.41-5.33-5.4-7.28-9.19-1.88-3.72-2.85-8.54-2.85-14.37v-69.89c0-4.16.75-8.02,2.18-11.6,1.5-3.57,3.53-6.64,6.23-9.27,2.7-2.63,5.93-4.67,9.6-6.13,3.75-1.46,7.88-2.26,12.38-2.26,8.78,0,15.98,2.77,21.45,8.39,2.7,2.77,4.8,5.98,6.3,9.7s2.33,7.81,2.33,12.18v7.15h-18.68v-6.06c0-3.57-1.05-6.64-3.15-9.27-2.1-2.63-4.88-3.94-8.4-3.94-4.65,0-7.73,1.39-9.23,4.16s-2.33,6.35-2.33,10.58v64.86c0,3.72.83,6.78,2.48,9.27,1.65,2.48,4.58,3.72,8.93,3.72,1.2,0,2.55-.22,3.98-.66,1.43-.44,2.7-1.09,3.9-2.04,1.13-.95,2.03-2.26,2.78-3.94.75-1.68,1.13-3.72,1.13-6.2v-6.27h18.68v.29Z"/>
    <path class="cls-1" d="M285.54,477.78v98.41c0,4.16-.75,8.02-2.33,11.53-1.5,3.5-3.68,6.64-6.53,9.34-2.78,2.77-6.08,4.89-9.68,6.42-3.68,1.53-7.58,2.33-11.7,2.33s-8.03-.8-11.63-2.33c-3.6-1.53-6.83-3.65-9.6-6.42-2.78-2.7-5.03-5.84-6.6-9.34-1.58-3.5-2.4-7.37-2.4-11.53v-98.41h18.68v96.59c0,4.52,1.13,7.81,3.3,9.99,2.18,2.12,4.95,3.21,8.25,3.21s6.08-1.09,8.25-3.21c2.18-2.12,3.3-5.47,3.3-9.99v-96.59h18.68Z"/>
    <path class="cls-1" d="M303.09,604.64v-126.87h30.08c21.98,0,33,12.4,33,37.28,0,7.51-1.2,13.86-3.6,19.04-2.4,5.25-6.6,9.41-12.53,12.62l20.18,57.92h-19.8l-17.4-54.13h-11.18v54.2h-18.75v-.07ZM321.85,494.92v39.54h10.65c3.3,0,5.93-.44,7.88-1.31s3.45-2.19,4.58-3.87c.98-1.68,1.65-3.72,2.03-6.13s.53-5.25.53-8.46-.15-6.06-.53-8.46-1.13-4.52-2.18-6.35c-2.33-3.36-6.75-4.96-13.2-4.96h-9.75Z"/>
    <path class="cls-1" d="M381.17,604.64v-126.87h55.73v17.14h-36.98v37.28h32.25v17.14h-32.25v37.28h36.98v18.17h-55.73v-.15Z"/>
    <path class="cls-1" d="M542.43,568.53v7.81c0,3.94-.75,7.66-2.33,11.16-1.5,3.5-3.6,6.64-6.3,9.34-2.7,2.7-5.85,4.89-9.45,6.49-3.6,1.6-7.5,2.41-11.63,2.41-3.53,0-7.13-.51-10.8-1.46-3.68-.95-6.98-2.63-9.9-4.96-2.93-2.41-5.33-5.4-7.28-9.19-1.88-3.72-2.85-8.54-2.85-14.37v-69.89c0-4.16.75-8.02,2.18-11.6,1.5-3.57,3.53-6.64,6.23-9.27,2.7-2.63,5.93-4.67,9.6-6.13,3.75-1.46,7.88-2.26,12.38-2.26,8.78,0,15.98,2.77,21.45,8.39,2.7,2.77,4.8,5.98,6.3,9.7s2.33,7.81,2.33,12.18v7.15h-18.68v-6.06c0-3.57-1.05-6.64-3.15-9.27-2.1-2.63-4.88-3.94-8.4-3.94-4.65,0-7.73,1.39-9.23,4.16s-2.33,6.35-2.33,10.58v64.86c0,3.72.83,6.78,2.48,9.27s4.58,3.72,8.93,3.72c1.2,0,2.55-.22,3.98-.66,1.43-.44,2.7-1.09,3.9-2.04,1.13-.95,2.03-2.26,2.78-3.94.75-1.68,1.13-3.72,1.13-6.2v-6.27h18.68v.29Z"/>
    <path class="cls-1" d="M575.06,604.64v-53.62l-25.65-73.24h19.8l15,50.41h.38l15-50.41h19.8l-25.65,73.24v53.62h-18.68Z"/>
    <path class="cls-1" d="M688.09,568.53v7.81c0,3.94-.75,7.66-2.33,11.16-1.5,3.5-3.6,6.64-6.3,9.34s-5.85,4.89-9.45,6.49c-3.6,1.6-7.5,2.41-11.63,2.41-3.53,0-7.13-.51-10.8-1.46s-6.98-2.63-9.9-4.96c-2.93-2.41-5.33-5.4-7.28-9.19-1.88-3.72-2.85-8.54-2.85-14.37v-69.89c0-4.16.75-8.02,2.18-11.6,1.5-3.57,3.53-6.64,6.23-9.27,2.7-2.63,5.93-4.67,9.6-6.13,3.75-1.46,7.88-2.26,12.38-2.26,8.78,0,15.98,2.77,21.45,8.39,2.7,2.77,4.8,5.98,6.3,9.7s2.33,7.81,2.33,12.18v7.15h-18.68v-6.06c0-3.57-1.05-6.64-3.15-9.27-2.1-2.63-4.88-3.94-8.4-3.94-4.65,0-7.73,1.39-9.23,4.16s-2.33,6.35-2.33,10.58v64.86c0,3.72.83,6.78,2.48,9.27s4.58,3.72,8.93,3.72c1.2,0,2.55-.22,3.98-.66,1.43-.44,2.7-1.09,3.9-2.04,1.13-.95,2.03-2.26,2.78-3.94.75-1.68,1.13-3.72,1.13-6.2v-6.27h18.68v.29Z"/>
    <path class="cls-1" d="M703.31,604.64v-126.87h18.68v108.7h36.98v18.17h-55.65Z"/>
    <path class="cls-1" d="M771.11,604.64v-126.87h55.73v17.14h-37.05v37.28h32.25v17.14h-32.25v37.28h36.98v18.17h-55.65v-.15Z"/>
  </g>
</svg>