<svg width="162" height="110" viewBox="0 0 162 110" fill="none" xmlns="http://www.w3.org/2000/svg">
<rect width="162" height="110" fill="white"/>
<path d="M23.728 46.32C22.1707 46.32 20.8053 46.032 19.632 45.456C18.4587 44.8587 17.5413 44.0373 16.88 42.992C16.24 41.9253 15.92 40.688 15.92 39.28V29.36C15.92 27.9307 16.24 26.6933 16.88 25.648C17.5413 24.6027 18.4587 23.792 19.632 23.216C20.8053 22.6187 22.1707 22.32 23.728 22.32C25.3067 22.32 26.672 22.6187 27.824 23.216C28.9973 23.792 29.904 24.6027 30.544 25.648C31.2053 26.6933 31.536 27.9307 31.536 29.36H26.736C26.736 28.4213 26.4693 27.7067 25.936 27.216C25.424 26.7253 24.688 26.48 23.728 26.48C22.768 26.48 22.0213 26.7253 21.488 27.216C20.976 27.7067 20.72 28.4213 20.72 29.36V39.28C20.72 40.1973 20.976 40.912 21.488 41.424C22.0213 41.9147 22.768 42.16 23.728 42.16C24.688 42.16 25.424 41.9147 25.936 41.424C26.4693 40.912 26.736 40.1973 26.736 39.28V37.264H23.28V33.2H31.536V39.28C31.536 40.688 31.2053 41.9253 30.544 42.992C29.904 44.0373 28.9973 44.8587 27.824 45.456C26.672 46.032 25.3067 46.32 23.728 46.32ZM42.7875 46.32C41.2302 46.32 39.8755 46.032 38.7235 45.456C37.5715 44.8587 36.6755 44.0373 36.0355 42.992C35.4168 41.9253 35.1075 40.688 35.1075 39.28V35.12C35.1075 33.712 35.4168 32.4853 36.0355 31.44C36.6755 30.3733 37.5715 29.552 38.7235 28.976C39.8755 28.3787 41.2302 28.08 42.7875 28.08C44.3662 28.08 45.7208 28.3787 46.8515 28.976C48.0035 29.552 48.8888 30.3733 49.5075 31.44C50.1475 32.4853 50.4675 33.712 50.4675 35.12V39.28C50.4675 40.688 50.1475 41.9253 49.5075 42.992C48.8888 44.0373 48.0035 44.8587 46.8515 45.456C45.7208 46.032 44.3662 46.32 42.7875 46.32ZM42.7875 42.16C43.7262 42.16 44.4408 41.9147 44.9315 41.424C45.4222 40.912 45.6675 40.1973 45.6675 39.28V35.12C45.6675 34.1813 45.4222 33.4667 44.9315 32.976C44.4408 32.4853 43.7262 32.24 42.7875 32.24C41.8702 32.24 41.1555 32.4853 40.6435 32.976C40.1528 33.4667 39.9075 34.1813 39.9075 35.12V39.28C39.9075 40.1973 40.1528 40.912 40.6435 41.424C41.1555 41.9147 41.8702 42.16 42.7875 42.16ZM23.728 88.32C22.1707 88.32 20.8053 88.032 19.632 87.456C18.4587 86.8587 17.5413 86.0373 16.88 84.992C16.24 83.9253 15.92 82.688 15.92 81.28V71.36C15.92 69.9307 16.24 68.6933 16.88 67.648C17.5413 66.6027 18.4587 65.792 19.632 65.216C20.8053 64.6187 22.1707 64.32 23.728 64.32C25.3067 64.32 26.672 64.6187 27.824 65.216C28.9973 65.792 29.904 66.6027 30.544 67.648C31.2053 68.6933 31.536 69.9307 31.536 71.36H26.736C26.736 70.4213 26.4693 69.7067 25.936 69.216C25.424 68.7253 24.688 68.48 23.728 68.48C22.768 68.48 22.0213 68.7253 21.488 69.216C20.976 69.7067 20.72 70.4213 20.72 71.36V81.28C20.72 82.1973 20.976 82.912 21.488 83.424C22.0213 83.9147 22.768 84.16 23.728 84.16C24.688 84.16 25.424 83.9147 25.936 83.424C26.4693 82.912 26.736 82.1973 26.736 81.28H31.536C31.536 82.688 31.2053 83.9253 30.544 84.992C29.904 86.0373 28.9973 86.8587 27.824 87.456C26.672 88.032 25.3067 88.32 23.728 88.32ZM42.7875 88.32C41.2302 88.32 39.8755 88.032 38.7235 87.456C37.5715 86.8587 36.6755 86.0373 36.0355 84.992C35.4168 83.9253 35.1075 82.688 35.1075 81.28V77.12C35.1075 75.712 35.4168 74.4853 36.0355 73.44C36.6755 72.3733 37.5715 71.552 38.7235 70.976C39.8755 70.3787 41.2302 70.08 42.7875 70.08C44.3662 70.08 45.7208 70.3787 46.8515 70.976C48.0035 71.552 48.8888 72.3733 49.5075 73.44C50.1475 74.4853 50.4675 75.712 50.4675 77.12V81.28C50.4675 82.688 50.1475 83.9253 49.5075 84.992C48.8888 86.0373 48.0035 86.8587 46.8515 87.456C45.7208 88.032 44.3662 88.32 42.7875 88.32ZM42.7875 84.16C43.7262 84.16 44.4408 83.9147 44.9315 83.424C45.4222 82.912 45.6675 82.1973 45.6675 81.28V77.12C45.6675 76.1813 45.4222 75.4667 44.9315 74.976C44.4408 74.4853 43.7262 74.24 42.7875 74.24C41.8702 74.24 41.1555 74.4853 40.6435 74.976C40.1528 75.4667 39.9075 76.1813 39.9075 77.12V81.28C39.9075 82.1973 40.1528 82.912 40.6435 83.424C41.1555 83.9147 41.8702 84.16 42.7875 84.16ZM54.487 88V70.4H59.127V73.76H60.535L59.127 74.88C59.127 73.3867 59.5537 72.2133 60.407 71.36C61.2603 70.5067 62.4123 70.08 63.863 70.08C65.5697 70.08 66.935 70.6773 67.959 71.872C69.0043 73.0667 69.527 74.656 69.527 76.64V88H64.727V77.12C64.727 76.2027 64.4817 75.4987 63.991 75.008C63.5217 74.496 62.8497 74.24 61.975 74.24C61.1217 74.24 60.4603 74.496 59.991 75.008C59.5217 75.4987 59.287 76.2027 59.287 77.12V88H54.487ZM73.6745 88V70.4H78.3145V73.76H79.7225L78.3145 74.88C78.3145 73.3867 78.7412 72.2133 79.5945 71.36C80.4478 70.5067 81.5998 70.08 83.0505 70.08C84.7572 70.08 86.1225 70.6773 87.1465 71.872C88.1918 73.0667 88.7145 74.656 88.7145 76.64V88H83.9145V77.12C83.9145 76.2027 83.6692 75.4987 83.1785 75.008C82.7092 74.496 82.0372 74.24 81.1625 74.24C80.3092 74.24 79.6478 74.496 79.1785 75.008C78.7092 75.4987 78.4745 76.2027 78.4745 77.12V88H73.6745ZM100.382 88.32C98.8247 88.32 97.4593 88.032 96.286 87.456C95.134 86.8587 94.238 86.0373 93.598 84.992C92.9793 83.9253 92.67 82.688 92.67 81.28V77.12C92.67 75.712 92.9793 74.4853 93.598 73.44C94.238 72.3733 95.134 71.552 96.286 70.976C97.4593 70.3787 98.8247 70.08 100.382 70.08C101.939 70.08 103.283 70.3787 104.414 70.976C105.566 71.552 106.451 72.3733 107.07 73.44C107.71 74.4853 108.03 75.712 108.03 77.12V80.32H97.246V81.28C97.246 82.3893 97.5127 83.232 98.046 83.808C98.5793 84.3627 99.3793 84.64 100.446 84.64C101.193 84.64 101.79 84.512 102.238 84.256C102.707 84 103.017 83.648 103.166 83.2H107.87C107.486 84.736 106.611 85.9733 105.246 86.912C103.902 87.8507 102.281 88.32 100.382 88.32ZM103.454 77.856V77.056C103.454 75.968 103.198 75.136 102.686 74.56C102.195 73.984 101.427 73.696 100.382 73.696C99.3367 73.696 98.5473 73.9947 98.014 74.592C97.502 75.1893 97.246 76.032 97.246 77.12V77.6L103.774 77.536L103.454 77.856ZM119.634 88.32C118.076 88.32 116.711 88.032 115.538 87.456C114.364 86.8587 113.458 86.0373 112.818 84.992C112.178 83.9253 111.858 82.688 111.858 81.28V77.12C111.858 75.6907 112.178 74.4533 112.818 73.408C113.458 72.3627 114.364 71.552 115.538 70.976C116.711 70.3787 118.076 70.08 119.634 70.08C121.959 70.08 123.815 70.6667 125.202 71.84C126.588 73.0133 127.324 74.6133 127.41 76.64H122.61C122.546 75.8933 122.247 75.3067 121.714 74.88C121.202 74.4533 120.508 74.24 119.634 74.24C118.674 74.24 117.938 74.4853 117.426 74.976C116.914 75.4667 116.658 76.1813 116.658 77.12V81.28C116.658 82.1973 116.914 82.912 117.426 83.424C117.938 83.9147 118.674 84.16 119.634 84.16C120.508 84.16 121.202 83.9573 121.714 83.552C122.247 83.1253 122.546 82.528 122.61 81.76H127.41C127.324 83.7867 126.588 85.3867 125.202 86.56C123.815 87.7333 121.959 88.32 119.634 88.32ZM140.645 88C138.853 88 137.445 87.488 136.421 86.464C135.397 85.44 134.885 84.032 134.885 82.24V74.72H130.245V70.4H134.885V65.44H139.685V70.4H146.245V74.72H139.685V82.24C139.685 83.2 140.165 83.68 141.125 83.68H145.925V88H140.645Z" fill="#1E1E1E"/>
</svg>
